HIERARCHY
ROOT Hips
{
	OFFSET 0.000000 0.000000 0.000000
	CHANNELS 6 Xposition Yposition Zposition Xrotation Yrotation Zrotation
	JOINT LeftUpLeg_virtual
	{
		OFFSET 0.000000 0.000000 0.000000
		CHANNELS 3 Xrotation Yrotation Zrotation
		JOINT LeftUpLeg
		{
			OFFSET 10.205400 -3.823500 0.155100
			CHANNELS 3 Xrotation Yrotation Zrotation
			JOINT LeftLeg
			{
				OFFSET 0.708757 -12.982077 0.567790
				CHANNELS 3 Xrotation Yrotation Zrotation
				JOINT LeftFoot
				{
					OFFSET -0.708756 -10.717838 -2.184338
					CHANNELS 3 Xrotation Yrotation Zrotation
					JOINT LeftToeBase
					{
						OFFSET 0.108149 -7.191104 7.560241
						CHANNELS 3 Xrotation Yrotation Zrotation
						JOINT LeftToe_End
						{
							OFFSET 0.070230 0.081724 4.490308
							CHANNELS 3 Xrotation Yrotation Zrotation
							End Site
							{
								OFFSET 0 0 0
							}
						}
					}
				}
			}
		}
	}
	JOINT RightUpLeg_virtual
	{
		OFFSET 0.000000 0.000000 0.000000
		CHANNELS 3 Xrotation Yrotation Zrotation
		JOINT RightUpLeg
		{
			OFFSET -10.205400 -3.823500 0.005500
			CHANNELS 3 Xrotation Yrotation Zrotation
			JOINT RightLeg
			{
				OFFSET -0.708756 -12.982134 0.610632
				CHANNELS 3 Xrotation Yrotation Zrotation
				JOINT RightFoot
				{
					OFFSET 0.708754 -10.717769 -1.945823
					CHANNELS 3 Xrotation Yrotation Zrotation
					JOINT RightToeBase
					{
						OFFSET -0.108140 -7.191069 7.372968
						CHANNELS 3 Xrotation Yrotation Zrotation
						JOINT RightToe_End
						{
							OFFSET -0.070227 0.081735 4.479403
							CHANNELS 3 Xrotation Yrotation Zrotation
							End Site
							{
								OFFSET 0 0 0
							}
						}
					}
				}
			}
		}
	}
	JOINT Spine_virtual
	{
		OFFSET 0.000000 0.000000 0.000000
		CHANNELS 3 Xrotation Yrotation Zrotation
		JOINT Spine
		{
			OFFSET 0.000000 6.876099 0.125700
			CHANNELS 3 Xrotation Yrotation Zrotation
			JOINT Spine1
			{
				OFFSET 0.000000 5.730043 0.104720
				CHANNELS 3 Xrotation Yrotation Zrotation
				JOINT Spine1_split
				{
					OFFSET 0.000000 5.730043 0.104720
					CHANNELS 3 Xrotation Yrotation Zrotation
					JOINT Spine2
					{
						OFFSET 0.000000 5.730043 0.104720
						CHANNELS 3 Xrotation Yrotation Zrotation
						JOINT Neck_virtual
						{
							OFFSET 0.000000 0.000000 0.000000
							CHANNELS 3 Xrotation Yrotation Zrotation
							JOINT Neck
							{
								OFFSET 0.000000 10.314075 0.188496
								CHANNELS 3 Xrotation Yrotation Zrotation
								JOINT Head
								{
									OFFSET 0.000000 7.643700 -2.377400
									CHANNELS 3 Xrotation Yrotation Zrotation
									JOINT HeadTop_End
									{
										OFFSET 0.000000 43.788605 -13.619600
										CHANNELS 3 Xrotation Yrotation Zrotation
										End Site
										{
											OFFSET 0 0 0
										}
									}
								}
							}
						}
						JOINT LeftShoulder_virtual
						{
							OFFSET 0.000000 0.000000 0.000000
							CHANNELS 3 Xrotation Yrotation Zrotation
							JOINT LeftShoulder
							{
								OFFSET 2.196100 4.412489 0.087492
								CHANNELS 3 Xrotation Yrotation Zrotation
								JOINT LeftShoulder_split
								{
									OFFSET 2.196100 4.412489 0.087492
									CHANNELS 3 Xrotation Yrotation Zrotation
									JOINT LeftArm
									{
										OFFSET 8.771219 -2.981674 -0.026999
										CHANNELS 3 Xrotation Yrotation Zrotation
										JOINT LeftForeArm
										{
											OFFSET 8.512804 0.000000 -0.000000
											CHANNELS 3 Xrotation Yrotation Zrotation
											JOINT LeftHand
											{
												OFFSET 18.484802 0.000000 -0.000000
												CHANNELS 3 Xrotation Yrotation Zrotation
												End Site
												{
													OFFSET 0 0 0
												}
											}
										}
									}
								}
							}
						}
						JOINT RightShoulder_virtual
						{
							OFFSET 0.000000 0.000000 0.000000
							CHANNELS 3 Xrotation Yrotation Zrotation
							JOINT RightShoulder
							{
								OFFSET -2.196100 4.412496 0.070690
								CHANNELS 3 Xrotation Yrotation Zrotation
								JOINT RightShoulder_split
								{
									OFFSET -2.196100 4.412496 0.070690
									CHANNELS 3 Xrotation Yrotation Zrotation
									JOINT RightArm
									{
										OFFSET -8.771282 -2.981682 -0.094208
										CHANNELS 3 Xrotation Yrotation Zrotation
										JOINT RightForeArm
										{
											OFFSET -8.494598 0.000000 0.000000
											CHANNELS 3 Xrotation Yrotation Zrotation
											JOINT RightHand
											{
												OFFSET -18.483803 0.000000 0.000001
												CHANNELS 3 Xrotation Yrotation Zrotation
												End Site
												{
													OFFSET 0 0 0
												}
											}
										}
									}
								}
							}
						}
					}
				}
			}
		}
	}
}
MOTION
Frames: 4
Frame Time: 0.03333333
0.845904 16.338200 -1.105045 0.000000 0.000000 0.000000 179.313052 -8.512678 173.676602 -79.899471 -32.533161 27.804621 116.387967 -11.938835 -2.347200 -25.985714 6.226813 -20.210103 -10.315479 0.210822 0.910919 0.000000 0.000000 0.000000 179.187650 -6.033396 173.932598 -37.206687 13.951284 -43.024072 104.243611 17.199135 0.858409 -42.342907 -15.770692 32.316330 -3.672455 -5.346281 -0.363094 0.000000 0.000000 0.000000 179.831723 -6.812424 171.940163 7.752824 4.896616 -3.324899 7.818217 7.226303 -3.837573 0.641748 -3.167888 0.702118 0.000000 0.000000 0.000000 8.033966 6.698619 -3.712061 -4.624447 23.719592 7.244118 6.749409 33.358258 -23.840779 0.000000 0.000000 0.000000 8.552659 7.035473 -3.970922 1.017349 -13.356863 -10.387993 -3.492111 -1.595037 -3.973804 2.933654 2.156919 -31.796286 36.386054 -40.438798 0.996198 0.000000 0.000000 0.000000 8.115504 6.986978 -4.309574 5.263055 -18.613939 13.666768 1.577322 2.924893 -1.642869 12.831698 -12.553045 61.238732 34.488217 48.690028 -8.738219 0.000000 0.000000 0.000000 
0.844190 16.340153 -1.109871 0.000000 0.000000 0.000000 179.268710 -8.538962 173.656549 -79.966550 -32.510908 27.774083 116.373378 -11.937551 -2.338373 -25.975129 6.221256 -20.191105 -10.270896 0.207827 0.915202 0.000000 0.000000 0.000000 179.141778 -6.050843 173.918787 -37.233284 13.917695 -43.042452 104.243529 17.206679 0.863460 -42.364638 -15.763867 32.285191 -3.677344 -5.343662 -0.359292 0.000000 0.000000 0.000000 179.785551 -6.831475 171.917296 7.726063 4.900014 -3.322467 7.779481 7.222098 -3.841093 0.639567 -3.168911 0.701476 0.000000 0.000000 0.000000 7.989959 6.694239 -3.714345 -4.679398 23.727599 7.233011 6.862153 33.345161 -23.843159 0.000000 0.000000 0.000000 8.520198 7.031027 -3.975786 1.016737 -13.394973 -10.389623 -3.470413 -1.590760 -3.968920 2.999971 2.191790 -31.749779 36.369501 -40.531435 0.981448 0.000000 0.000000 0.000000 8.081318 6.984414 -4.315817 5.269424 -18.645757 13.619092 1.571985 2.924242 -1.651055 12.837549 -12.543020 61.335174 34.500761 48.610702 -8.758303 0.000000 0.000000 0.000000 
0.843100 16.341724 -1.114349 0.000000 0.000000 0.000000 179.229532 -8.570140 173.635949 -80.025440 -32.503470 27.737641 116.360277 -11.937062 -2.330734 -25.960171 6.218886 -20.166984 -10.242978 0.206037 0.914348 0.000000 0.000000 0.000000 179.101152 -6.071025 173.906110 -37.238369 13.878987 -43.067263 104.230128 17.217551 0.873560 -42.393126 -15.757598 32.260244 -3.660111 -5.339187 -0.354736 0.000000 0.000000 0.000000 179.742999 -6.856714 171.894114 7.697082 4.907649 -3.319452 7.747572 7.221752 -3.844529 0.633335 -3.172454 0.703643 0.000000 0.000000 0.000000 7.953456 6.693401 -3.718609 -4.701614 23.737563 7.220167 6.962996 33.339653 -23.860658 0.000000 0.000000 0.000000 8.495423 7.029412 -3.981576 1.016328 -13.441122 -10.391286 -3.449026 -1.579667 -3.960106 3.063916 2.248840 -31.692119 36.351366 -40.645131 0.973059 0.000000 0.000000 0.000000 8.052718 6.985027 -4.322631 5.274669 -18.683332 13.573271 1.563876 2.923988 -1.661341 12.837369 -12.531176 61.438337 34.504627 48.519857 -8.770866 0.000000 0.000000 0.000000 
0.842653 16.341772 -1.117760 0.000000 0.000000 0.000000 179.197062 -8.606048 173.616333 -80.081455 -32.516646 27.697530 116.353570 -11.941186 -2.320917 -25.929256 6.215364 -20.145651 -10.239032 0.205673 0.909058 0.000000 0.000000 0.000000 179.067602 -6.096115 173.893802 -37.219302 13.833909 -43.100051 104.205478 17.231433 0.889174 -42.425358 -15.753971 32.246706 -3.628831 -5.333468 -0.350096 0.000000 0.000000 0.000000 179.705979 -6.889257 171.870646 7.670503 4.919907 -3.315683 7.724106 7.226117 -3.845676 0.625546 -3.169103 0.702303 0.000000 0.000000 0.000000 7.925076 6.697170 -3.722323 -4.686863 23.747287 7.200348 7.049523 33.341002 -23.895509 0.000000 0.000000 0.000000 8.479593 7.031374 -3.985682 1.016450 -13.497999 -10.392678 -3.431317 -1.559994 -3.950663 3.122066 2.334287 -31.626962 36.331706 -40.778248 0.971505 0.000000 0.000000 0.000000 8.031199 6.989863 -4.327320 5.279930 -18.720630 13.528632 1.558380 2.928382 -1.677577 12.842312 -12.514711 61.548119 34.494340 48.406363 -8.771641 0.000000 0.000000 0.000000 
